<svg xmlns="http://www.w3.org/2000/svg" xmlns:xlink="http://www.w3.org/1999/xlink" version="1.1" x="0px" y="0px" viewBox="0 0 48 60" style="enable-background:new 0 0 48 48;" xml:space="preserve"><g><path d="M24,3c-3.86,0-7,3.14-7,7v3h-5c-0.46,0-0.86,0.31-0.97,0.76l-1,4c-0.01,0.03,0,0.05,0,0.08c0,0.03-0.02,0.05-0.02,0.08   l-2,26c-0.02,0.28,0.07,0.55,0.26,0.76C8.46,44.88,8.72,45,9,45h30c0.28,0,0.54-0.12,0.73-0.32c0.19-0.2,0.28-0.48,0.26-0.76l-2-26   c0-0.03-0.02-0.06-0.02-0.09c0-0.03,0-0.05,0-0.08l-1-4C36.86,13.31,36.46,13,36,13h-5v-3C31,6.14,27.86,3,24,3z M19,10   c0-2.76,2.24-5,5-5s5,2.24,5,5v3H19V10z M36.07,19l1.85,24H10.08l1.85-24H18h12H36.07z M35.22,15l0.5,2H12.28l0.5-2H18h12H35.22z"/><path d="M16,21c0,0.74,0.41,1.38,1,1.72V28c0,1.88,0.73,3.64,2.05,4.94C20.36,34.27,22.12,35,24,35c3.86,0,7-3.14,7-7v-5.28   c0.59-0.35,1-0.98,1-1.72c0-1.1-0.9-2-2-2s-2,0.9-2,2c0,0.74,0.41,1.38,1,1.72V28c0,2.76-2.24,5-5,5c-1.34,0-2.59-0.52-3.54-1.47   C19.52,30.59,19,29.34,19,28v-5.28c0.59-0.35,1-0.98,1-1.72c0-1.1-0.9-2-2-2S16,19.9,16,21z"/></g></svg>
